<svg xmlns="http://www.w3.org/2000/svg" width="152" height="41"><path fill="#0f172a" fill-rule="nonzero" d="M24.952 1.072h-.672l-.048-.048.048-.108c.012-.024.024-.036.048-.036h.624C25 .88 25 .928 25 .928c0 .096-.048.096-.048.144Zm4.896 12.576v-.528c-.24.096-.384.384-.336.72.096-.096.24-.144.336-.192Zm2.784-7.104c-.048 0-.048-.096-.096-.144v-.432c.048 0 .048-.048.048-.048.048 0 .144.048.144.048V6.4c0 .048-.096.144-.096.144ZM30.04 12.88c.144-.048.24-.096.24-.24v-.336c-.144.048-.24.144-.24.24v.336Zm5.424 3.024c.096 0 .24-.192.24-.288-.048-.144-.192-.048-.24 0-.24.096-.432.096-.576.144-.048.048-.048.144-.048.144.192 0 .384.048.624 0Zm-9.648 3.024h-.864v-.048c.384-.192.864-.336 1.344-.288a.5.5 0 0 1-.48.336ZM15.64 21.28c-.576-.288-1.344-.192-1.92-.432-.048-.048-.144-.048-.144-.096.096 0 .144-.096.144-.096.816 0 1.536.096 2.304 0 .336 0 .672 0 1.008-.096.384-.096.816 0 1.2-.096.048.144.144.192.288.192.096 0 .192-.048.24-.048v-.048c-.144-.24 0-.24.144-.24.115 0 .169.061.26.11l.076.034c0 .096 0 .144.048.144.288.144.432-.144.624-.288-.096-.048-.096-.192.096-.192.24 0 .48 0 .768-.048v-.096c.24-.096.528-.096.768-.048.48.144.816.192.96.144.096-.096.048-.144.048-.192 0-.096 0-.144.048-.144h.288l.672.192c.24 0 .528-.144.72-.144.192-.048.384.096.672.144-.096.144-.144.192-.288.192-.096-.048-.24 0-.336.144-.384.048-.72-.048-1.056.192-.096.096-.336 0-.528 0-.336 0-.672.096-1.008.288l-.384.096c-.336 0-.672-.048-.912.144-.336-.144-.624.144-.96.096-.192 0-.384.096-.624 0s-.48.192-.768 0h-.24c-.72.336-1.488.096-2.208.192Zm8.064.72c.096-.288.336-.384.528-.528.096-.048.096-.288.096-.384-.288.096-.624.336-.864.576-.048.048-.048.192-.048.336h.288Zm-.288 1.104c.288-.048.384-.24.528-.528v-.048c0-.048-.048-.048-.048-.048-.288.096-.528.336-.48.624Zm-.576.624c.24-.144.432-.288.576-.624-.48.144-.528.144-.576.624Zm-7.68 5.52c.096-.144.144-.288.24-.384a.586.586 0 0 0-.432.192c-.096.048-.096.192-.096.384.096 0 .24 0 .288-.192Zm-.912.576c.336 0 .48-.144.624-.384h-.24c-.336 0-.336 0-.384.384Zm-1.584 1.152c.576-.096.864-.672 1.392-.864l.192-.288c-.144 0-.24 0-.336.096-.336.192-.72.384-1.008.624-.192.096-.336.24-.384.432h.144Zm-6.096 4.176H5.08l-.576-.192c0-.096-.096-.096-.096-.096 0-.048.096-.048.096-.048.048 0 .192-.048.24-.048h1.344c.24 0 .528-.144.72-.096.192.096.384.096.624.096-.288.192-.768.384-.864.384ZM22.84 1.072h.72c.048 0 .144.048.192.144-.336.048-.576.048-.912.048v-.192Zm8.544 9.696c0-.048 0-.192-.048-.24 0 0-.096-.096-.144-.096l-.144.096c-.048.24-.192.432-.336.72-.192.336-.432.672-.432 1.056.048-.048.192-.048.24-.192.288-.336.48-.72.672-1.152l.192-.192ZM15.592 29.824h.384c-.048.288-.24.432-.576.336v-.144c.096-.048.192-.096.192-.192ZM32.2 7.408c0 .048 0 .192-.096.192-.275.196-.228.457-.15.73l.054.182c.096-.048.096-.192.192-.24 0-.096.048-.096.048-.096l.048.096v.048a4.257 4.257 0 0 1-.384 1.392c0 .048-.048.048-.144.144v-.432l-.096-.096v.048c-.144.192-.24.384-.288.576 0 .144.048.24.192.288v.336c0 .048-.048.192-.192.192 0 .192 0 .336-.048.48-.096.24-.192.528-.336.72-.48.528-.624 1.2-1.152 1.68 0 .192 0 .336-.096.432a4.45 4.45 0 0 0-.538.777l-.32.564c-.107.186-.219.366-.342.531v.144s-.096 0-.096.048l-.768 1.008c-.144.144 0 .384-.288.48-.336.192-.672.432-1.056.576-.336.144-.72.192-1.152.336-.384.144-.72.288-1.152.288a.688.688 0 0 0-.48.192c-.096 0-.096.048-.096.096h.096c.192 0 .384 0 .528-.048.24-.144.528-.144.768-.144-.192.192-.624.432-.816.432-.432 0-.768.048-1.104.192-.192.048-.336-.096-.192-.288 0 0-.048-.144-.048-.048-.48.192-1.008.144-1.488.48-.048.048-.192-.096-.336-.096-.288.096-.624.096-.96.192-.192.096-.432.096-.672.144-.528.144-1.2.048-1.728.192-.68.12-1.327.14-1.996.143l-2.708.001c-.144 0-.288 0-.432-.048-.432-.24-.912-.48-1.536-.48 0-.048-.048-.048-.096-.048-.672-.336-.672-.432-.192-.864a6.113 6.113 0 0 1 1.056-1.2c.336-.336.672-.768.912-1.152.048-.144.144-.192.192-.24.144-.24.48-.288.624-.528.096-.288.336-.48.672-.576.096-.528.72-.576.96-1.056.096-.24.432-.528.624-.672.384-.24.672-.576 1.056-.864.528-.384 1.056-.768 1.584-1.248.48-.384 1.008-.768 1.536-1.056l.528-.384c1.008-.672 2.064-1.056 3.12-1.488.48-.096.912-.048 1.344 0 .048 0 .096.144.192.192.048.096.192.144.336.096.144-.144.24-.144.384 0 .048 0 .144.048.192.048.096-.048.144-.048.192-.144.096-.048.144-.096.096-.24-.192-.48-.432-.912-.96-1.152-.192-.096-.384-.24-.576-.384-.144 0-.288-.192-.48-.048-.24.192-.528-.288-.768 0-.528.048-1.056.24-1.632.432-.048 0-.096 0-.192.096-1.104.72-2.4 1.2-3.456 1.968-.672.48-1.248.96-1.92 1.392l-1.248 1.008c-.144.144-.288.288-.336.384 0 .096-.048.096-.048.144l-1.008.816c-.336.24-.624.576-.96.864l-.288.192c-.432.672-1.104 1.2-1.632 1.728l-1.92 2.304c-.144.096-.192.144-.336.096-.384-.192-.72-.48-.912-.96-.288-.528-.528-.96-.72-1.584 0-.192-.096-.384-.096-.576-.048-.288 0-.624-.096-.96-.096-.048-.096-.096 0-.24a.936.936 0 0 0 .048-.624c0-.432.144-.768.24-1.2.336-.864.864-1.584 1.68-2.256.048-.048.192-.192.192-.24.192-.48.624-.624.96-.864.24-.192.576-.384.864-.672l.624-.528c.624-.336 1.296-.72 1.872-1.152.336-.192.672-.432 1.056-.528.288-.048.528-.192.816-.336l.24-.24c.096-.192.24-.288.432-.384.192-.144.528-.096.672-.432l.096-.048c.48 0 .816-.192 1.152-.48.144-.144.384 0 .528-.192.144-.144.384-.144.576-.192.24-.144.336-.192.48-.336.192-.144.336-.192.528-.048 0 .048.144 0 .144 0 .336-.336.816-.336 1.2-.48.336-.096.672-.144.912-.336.192-.144.432-.288.672-.288.192 0 .384-.096.672 0 .144.096.336 0 .48-.048.528-.144 1.056-.336 1.632-.24.72-.288 1.488-.24 2.208-.24a.922.922 0 0 0 .576-.192c.288-.192.48-.048.672 0 .48.192.96.336 1.392.528.864.432 1.488 1.008 1.824 1.872.048.144.096.336.096.48 0 .384.288.672.288 1.056-.077.307-.092.614-.095.946l-.001.254c0 .048 0 .144.096.24 0 .144.384.144.192.48-.144.144-.048.384-.048.528v.144l-.096.048c0-.048-.048-.048-.048-.144-.096-.096 0-.288-.192-.288ZM14.872 3.712c-.144.288-.432.288-.672.432-.768.24-1.488.528-2.208.912l-.816.48c-.96.432-1.824 1.008-2.64 1.632-.864.672-1.728 1.296-2.304 2.208-.48.72-1.008 2.064-.96 2.976a1.8 1.8 0 0 1 0 1.008c-.048.528.288 1.008.192 1.488 0 .096.144.288.24.432 0 .288.096.528.24.816.288.24.384.576.624.912.048.192.096.384.24.528.288.192.384.528.624.816.192.192.24.48.384.672-.144.096-.288.336-.384.432-.096.144-.24.336-.288.48L5.608 22l-1.056 1.392c-.48.576-.72 1.2-1.152 1.776v.288c-.432.336-.624.72-.96 1.2-.192.336-.48.72-.624 1.104-.096.144-.096.336-.096.528-.288.144-.288.48-.48.624-.096.144-.096.24-.144.384L.52 31.168c-.096.048-.096.192-.144.336 0 .24.048.48.144.72-.24.288-.144.528-.144.816 0 .192.048.336.144.432.192.48.432.96.72 1.344.576 1.008 1.632 1.344 2.592 1.488.432.048 1.008.048 1.392-.096.528-.048 1.008-.048 1.44-.144h.096c.864-.336 1.728-.576 2.496-.96a25.446 25.446 0 0 0 2.256-1.344c.336-.192.768-.336 1.008-.672.48 0 .624-.48 1.008-.528.192-.288.672-.336.768-.72 0-.096.144-.096.144-.096.288 0 .336-.192.48-.336.144-.24.384-.528.672-.624.528-.288.864-.816 1.392-1.008.048 0 .144-.096.144-.144.096-.192.192-.384.432-.24.144-.096.144-.288.336-.336 0-.144.144-.192.288-.192.24 0 .384-.24.576-.432-.144-.24.096-.336.288-.432.24-.096.528-.24.576-.576.096-.192.288-.24.48-.288l.384-.336c.192-.144.336-.288.48-.48.144-.144.24-.336.48-.48.096-.144.384-.24.576-.432.144-.144.336-.144.48-.432.048-.192.336-.336.528-.528.048-.144.24-.192.384-.336.192-.336.48-.576.72-.864l.624-.528c.24-.144.24-.432.432-.672 0 0 .096 0 .096-.048l.528-.576c.24-.288.48-.48.672-.672.096-.144.192-.288.192-.48.48-.336.864-.816 1.248-1.248.288-.288.336-.288.864-.48.336-.144.816-.144 1.152-.336a.922.922 0 0 1 .576-.192c.528.048.912-.288 1.344-.384v-.24s-.096 0-.096-.048h-.096c-.864.336-1.728.48-2.592.672-.144.048-.288.144-.336.144-.096.048-.144 0-.144-.096-.048-.048-.048-.096 0-.096.192-.144.384-.336.672-.336.048 0 .144-.096.144-.096 0-.048-.096-.048-.144-.048-.144-.096-.288-.096-.48-.144 0 0-.048-.048 0-.144 0-.048.096-.096.096-.096.048 0 .096 0 .192.048.048 0 .096.144.192 0 .048-.144.144-.288.192-.48.144-.144.144-.336.048-.576-.048-.096 0-.288.096-.384.192-.144.432-.096.528-.24.048-.096 0-.384.192-.528h.144v-.096c0-.096.048-.144.048-.24.096.096.096.144.096.24.048 0 .048.048.048.096.192-.048.192-.336.144-.432-.192-.288-.144-.432.048-.624s.384-.336.336-.672c0-.048.048-.096.144-.096.048-.096.096-.144.192-.144 0 .048.048.144.048.144 0 .048.096.048.096.048.048 0 .048-.048.096-.144 0-.144-.048-.24-.096-.384-.096-.144-.096-.288.048-.336.144-.048.192-.144.336-.192.192-.144.384-.432.192-.72a.666.666 0 0 1 0-.432c.144-.24.336-.336.384-.528.144-.144.096-.384.096-.576.048-.144.144-.192.144-.288.048-.336.192-.672.24-1.008 0-.432.192-.912.288-1.392a6.436 6.436 0 0 0 0-1.92c-.144-.576-.432-1.104-.624-1.632-.24-.672-.768-1.104-1.248-1.536-.48-.384-1.056-.624-1.68-.96-.432-.192-1.056-.192-1.536-.384-.048-.048-.096-.048-.192-.048-.096.048-.24.048-.336.144-.24.048-.192-.288-.336-.288h-1.104v.048c0 .096 0 .096.048.096 0 .048.096.048.144.048 0 .096-.048.144-.048.144-.48-.048-.96.144-1.344-.144-.336 0-.72-.144-1.008 0-.384.144-.72.144-1.104.192-.096 0-.144.096-.192.144-.528-.048-1.104.192-1.632.288-.048 0-.048.048-.096.096-.432-.048-.816.144-1.2.288 0 .036 0 .045.02.047l.172.001c.048.096.144.096.192.144-.048 0-.144.048-.144.048h-.576c-.096.096-.096.24-.144.24-.192.048-.384 0-.528.096l-1.536.528-1.392.48c-.192.048-.144-.144-.048-.192 0-.048-.096-.144-.096-.144-.24.096-.432.144-.576.336.048 0 .144 0 .192.048h.048c0 .096 0 .144-.048.144h-.192c-.096.192-.288.192-.384.192Zm4.896 22.848h-.144c-.336.24-.576.336-.864.576-.144.096-.144.24-.144.384-.096.048-.24 0-.336.144-.192.192-.528.336-.576.624-.384 0-.576.24-.816.576-.048.048-.096.048-.192.192-.096 0-.336 0-.336.192h.336c-.048.24-.24.384-.528.384v-.192c-.24 0-.432.144-.576.384-.096 0-.192.096-.192.144-.096.048-.24 0-.288.048-.672.528-1.44.96-2.112 1.536-.096 0-.144.096-.144.096-.72.096-1.248.624-1.872.912-.432.288-.912.48-1.44.48 0 0 0-.096.048-.144a27.56 27.56 0 0 0 1.728-1.008c.48-.24 1.008-.384 1.2-.912h-.24c-1.008.672-2.016 1.2-3.072 1.728-.288.192-.672.24-.864.528-.192.048-.192.048-.192.24l-.144.144c-.144-.048-.192-.144-.336-.144-.144-.048-.192 0-.24.144-.48.144-.96.288-1.44.384-.096.096-.192.144-.24.144-.912-.048-1.728.336-2.64.192-.24 0-.432-.096-.624-.096-.24-.096-.528 0-.72-.24-.144-.24-.048-.528-.048-.768 0-.48 0-.96.24-1.344.192-.24.144-.576.288-.912.096-.192.384-.48.336-.816-.096-.144.096-.144.096-.192.288-.384.672-.72.72-1.248.096-.192.144-.432.288-.528.144-.288.336-.48.48-.768.432-.912 1.2-1.728 1.632-2.64.144-.24.336-.24.48-.48.288-.432.48-.912.816-1.248l.912-1.104c.336-.528.72-1.104 1.152-1.632.192-.192.24-.192.432-.048.144.144.288.288.48.384.384-.048.576.432 1.008.48.432.048.912.336 1.392.336.096 0 .192.048.24.048.432.192.72.144 1.056.144.96-.048 1.824 0 2.688 0 .72 0 1.392-.048 2.112 0 .48 0 1.008-.048 1.44-.24.24-.096.336 0 .576-.096.096 0 .288.096.432.096.192-.096.336-.096.48-.144.384-.288.912-.192 1.392-.432.384-.096.816-.288 1.344-.384 0 0 .048-.048.096-.144.096 0 .24-.048.288 0a.31.31 0 0 1 .24.096c-.048 0-.096.048-.096.048-.288.144-.432.336-.432.624.144-.096.288-.096.336-.144.192-.288.528-.384.768-.672.192-.288.432-.48.624-.672.144-.048.288-.048.432.096.192.192.096.384.096.576-.24.144-.432.48-.72.672l-.384.336v-.432l-.336.288c-.192.192-.288.48-.528.576-.128.085-.028.247.096.281l.048.007c0 .048 0 .144-.096.192l-1.584 1.68c-.048.048-.144.048-.24.048v-.192c-.144 0-.24.048-.24.192-.048 0-.096.048-.192.192-.24 0-.432.096-.528.336-.384.288-.72.624-1.008 1.008 0 0-.048 0-.048.048 0 0 .048.096.048.144 0 .192-.096.336-.288.336-.24-.192-.288-.192-.336-.048-.288.096-.336.384-.48.624Zm20.736-2.544c.336-.192.528-.528.864-.816-.48.096-.72.336-.864.816Zm-2.016 2.544c.048-.384.192-.72.768-.72-.096.384-.336.624-.768.72Zm-1.2 1.44c0-.048 0-.144.096-.192a2.22 2.22 0 0 1 1.104-1.2c0 .096 0 .288-.096.384-.288.336-.816.624-1.104 1.008Zm-.864.72v-.096c.288-.288.384-.624.864-.48-.144.24-.48.432-.72.576 0 .096-.048 0-.144 0Zm-.672 1.008c-.144 0-.144-.096-.144-.096-.048 0-.048-.048-.048-.048.192-.24.24-.384.384-.432h.144c.048 0 .048 0 .048.048-.192.144-.24.384-.384.528ZM46.936 17.92c0-.144.048-.336.096-.384-.336 0-.48.192-.672.384h.576Zm1.68-1.392c.096-.144.096-.384.144-.528-.384 0-.48.192-.672.528h.528Zm0 0c-.336.624-.96 1.008-1.392 1.392-.048.192-.24 0-.288 0-.096.24-.096.432-.24.48-.72.624-1.44 1.296-2.064 2.064-.144.192-.336.288-.432.432-.528.528-.912.96-1.344 1.344-.24.288-.576.624-.864.864 0 .096-.144 0-.288.096l-.035.175a.459.459 0 0 1-.205.305c-.576.768-1.248 1.536-2.016 2.112 0 0-.144 0-.192.048 0-.384.24-.576.528-.864.144-.192.432-.336.432-.528-.192-.144-.336 0-.576.144l-1.152 1.2c-1.536 1.68-2.976 3.168-4.56 4.8-.576.528-1.152 1.296-2.064 1.632 0-.144-.096-.336 0-.48.192-.624.24-1.152.672-1.68.672-1.056.912-2.208 1.488-3.36.096-.672.336-1.2.72-1.584.096-.24.192-.336.288-.624.096-.864.576-1.584 1.056-2.352l1.056-1.872c.24-.48.384-1.152.72-1.728.288-.432.336-1.152.816-1.728 0 0 0-.096-.048-.288-.096-.096-.144-.096-.24-.144-.672-.624-1.44-.48-1.824.336l-.96 1.824c-.864 1.728-1.584 3.552-2.4 5.328-.432 1.248-1.008 2.4-1.536 3.6a108.703 108.703 0 0 1-1.536 3.456c-.144.432-.432.816-.624 1.392-.192.384-.24 1.008-.096 1.584.048.432.384.912.72 1.2.336.336.624.384 1.056.192 1.2-.48 2.256-1.2 3.024-2.208.528-.624.96-1.152 1.536-1.488a7.906 7.906 0 0 0 1.152-1.056c.384-.48.816-.912 1.2-1.344.384-.576.864-1.056 1.392-1.632.384-.336.72-.672.96-1.008.816-1.2 1.728-2.448 2.832-3.456.528-.432 1.008-.864 1.44-1.44.624-.912 1.536-1.536 2.208-2.4.048-.096.096-.096.24-.144a12.115 12.115 0 0 0 2.16-1.968c.384-.336.624-.576 1.008-.768.72-.72 1.584-1.344 2.352-2.016.288-.192.144-.336 0-.528-.768-.672-1.632-.672-2.592-.432-.384.048-.48.576-.144.816.096.144.288.192.096.432-.144.192-.576.48-.72.816.144 0 .288.096.432.096-.288.432-.624.864-1.152.96ZM54.472 16c.528-.048.816-.336 1.152-.528.192-.288.048-.576.048-.816-.048-.432-.432-.672-.672-1.008-.096 0-.192-.144-.288-.144-.624-.048-1.104.144-1.584.48-.768.528-.576 1.632.192 1.872.288.096.576.096.72.144h.432Zm-3.744 17.376c.624-.24 1.2-.48 1.824-.672 1.344-.528 2.496-1.296 3.648-1.92.624-.384 1.248-.816 1.968-1.152.624-.432 1.2-1.008 1.968-1.248.432-.528 1.248-.912 1.872-1.344v-.192h-.48c.192-.384.384-.528.72-.528.096-.144.336-.144.528-.24.144-.384.384-.432.768-.576.144-.096.24-.096.384-.096.144-.288.432-.288.576-.288v.288c.24-.096.912-.912 1.584-1.968-.192-.48.288-.912.048-1.008-.288-.048-1.44.528-1.68.672-.528.336-.96.624-1.536.912-.576.336-1.392.672-1.92 1.248a1.925 1.925 0 0 1-.816.432c-1.008.48-1.824 1.104-2.736 1.584-1.248.72-2.208 1.392-3.408 1.92-.576.432-1.248.576-1.728.912-.624.288-1.2.528-1.776.672-.624.24-1.248.432-1.824.624-.624.144-1.344.144-1.776-.192a3.156 3.156 0 0 1 .096-1.776c.288-.432.48-.816.576-1.248.384-1.152 1.152-2.352 1.92-3.408.384-.672.864-1.248 1.344-2.064.24-.528.768-.96 1.44-.816h.144c.192 0 .336-.384.192-.624-.384-.336-.768-.672-1.2-.96-.528-.24-1.104-.144-1.536.288-.384.48-.96.96-1.344 1.44a17.457 17.457 0 0 0-2.928 4.896c-.192.72-.384 1.44-.528 2.208-.096.864.096 1.728.432 2.496.24.72.672 1.104 1.008 1.68a.916.916 0 0 0 .384.144c1.248.336 2.592.336 3.792-.096Zm8.16-5.904c0-.096.288-.288.48-.384l.756-.453 1.512-.87c.252-.147.504-.297.756-.453a8.566 8.566 0 0 1 2.064-.864c-.096.096-.24.336-.336.336-1.344.672-2.64 1.536-3.936 2.256-.432.24-.816.432-1.296.432ZM75.64 34.72c.48-.24 1.104-.336 1.584-.432.48-.048.816-.144 1.152-.384.96-.528 1.824-1.152 2.784-1.68.384-.192.912-.48 1.344-.816 1.296-1.008 2.448-2.016 3.744-3.12.384-.24.672-.624 1.104-.912.48-.288.816-.576 1.248-.96 1.632-1.152 3.264-2.4 4.848-3.456.48-.288.912-.576 1.488-.624.048 0 .288-.144.384-.24.096-.048.096-.48 0-.528-.096-.048-.192-.24-.336-.288-.24-.288-.864-.096-1.008-.576-.336-.096-.768-.192-1.104.048-1.392.864-2.832 1.632-4.176 2.688-2.016 1.632-4.08 3.024-6.096 4.752-1.152 1.008-2.544 1.968-3.888 2.832-1.008.72-2.208 1.344-3.36 1.536-1.056.432-1.248.144-1.008-.912.336-1.008.72-2.016 1.296-2.88.24-.384.432-.624.576-.96.24-.528.48-1.152.816-1.536.624-.816 1.008-1.728 1.632-2.592.144-.24.192-.72.384-.96.288-.192.432-.384.384-.816 0 0 0-.192.048-.192.576-.096.768-.72 1.104-1.104 1.008-1.392 1.92-2.784 2.928-4.032.672-.72 1.104-1.584 1.728-2.352a37.96 37.96 0 0 0 1.872-2.688c.432-.432 1.008-.912 1.344-1.392.864-1.392 2.16-2.544 3.408-3.744.384-.384.816-.864 1.248-1.248.336-.288.48-.624.288-.96a.936.936 0 0 1 0-.72c.048-.144.048-.384.048-.624-.048-.576-.816-1.056-1.392-.576-.432.384-1.008.816-1.44 1.344-.576.912-1.344 1.728-2.112 2.448-.672.768-1.488 1.536-2.256 2.352-.096.096-.144.288-.144.384.048.72-.336 1.104-.816 1.68-.816 1.056-1.728 2.256-2.688 3.36-.528.768-1.008 1.584-1.68 2.16-.384.288-.72.624-1.104.96-.768 1.248-1.92 2.064-2.784 3.12l-.288.144c-.24.096-.288 0-.336-.048-.096-.096-.192-.24-.096-.432.144-.192.144-.432.144-.768-.048.048-.144.192-.24.24-.384.192-.384.192-.768 0-.336-.336-.768-.528-1.152-.816-.816-.384-1.584-.432-2.496-.576-.816 0-1.68.432-2.4.912-1.056.816-2.016 1.872-2.976 2.832-.624.528-1.296 1.296-1.776 1.968a23.96 23.96 0 0 0-2.688 4.848c-.336.768-.624 1.584-.48 2.4.048 1.104.864 2.352 2.064 2.688.336.048.672.096 1.008 0 .72-.288 1.344-.48 1.968-1.056.144-.048.24-.24.528-.288.576-.336 1.008-.768 1.392-1.344.144-.048.336-.24.528-.384a33.188 33.188 0 0 0 3.408-3.456c.528-.768 1.104-1.44 1.728-2.112.624-.72 1.392-1.296 2.016-2.16.288-.288.576-.576.912-.72 0 .24-.192.576-.336.72-.576.864-1.056 1.776-1.584 2.64-.672 1.344-1.392 2.736-2.016 4.08-.144.24-.192.576-.192.768-.336 1.632.048 3.408 1.824 4.368.336.192.576.192.912.192Zm2.832-17.472c.096 0 .192 0 .192-.048.672-.624 1.2-1.248 1.776-1.968.48-.384.96-.96 1.44-1.344.48-.24.528-.672.624-1.104 0 0-.096-.048-.096-.192 0 0-.048 0-.048.144-.144.048-.192.192-.288.384-.048.096-.336.096-.336.144-.192.48-.528.72-.912.96-.288.24-.432.576-.624.768-.528.528-1.056.96-1.488 1.488-.24.144-.336.384-.24.768ZM63.304 31.024c-.048-.048-.144-.24-.048-.384.288-.864.528-1.824.96-2.592.768-1.248 1.44-2.208 2.4-3.264.24-.336.672-.672.816-1.104.144-.24.288-.576.576-.72.576-.576 1.248-1.2 2.016-1.68.912-.672 1.776-1.104 3.36-1.056h1.104c.192 0 .24.144.192.384a24.96 24.96 0 0 0-1.44 1.728c-.336.336-.672.576-1.104.96-1.152 1.392-2.592 2.784-3.936 4.128-.912.768-1.776 1.584-2.592 2.256l-1.968 1.296c-.096.048-.192.048-.336.048Zm6.816-4.416c.192-.288.48-.528.624-.768.192-.192.336-.336.384-.432l3.168-3.504c.144-.288.384-.576.672-.816.144-.144.336-.096.384 0 .096.192.144.432.096.48l-.336.384c-.384.432-.768.912-1.2 1.344-1.008 1.008-1.968 2.112-3.168 2.976-.144.144-.384.192-.624.336Zm16.896-1.104c.336-.384.864-.576 1.248-.96.336-.336.624-.672 1.2-.816.528-.432 1.104-.864 1.728-1.2.432-.336.816-.432 1.2-.432-.336.288-.72.576-1.104.768-1.056.72-2.16 1.584-3.168 2.4-.432.192-.624.384-1.104.24Zm-.384.576c0-.24.144-.432.384-.432 0 .432 0 .432-.384.432Zm-1.344.96c.24-.24.48-.432.816-.432-.192.336-.432.48-.816.432Zm-6.816-9.792c-.12 0-.216-.012-.288-.024l-.112-.02a.21.21 0 0 0-.032-.004l-1.296 1.488c.144.048.336.192.48.048.576-.384.816-.912 1.248-1.392v-.096ZM98.68 16c.528-.048.816-.336 1.152-.528.192-.288.048-.576.048-.816-.048-.432-.432-.672-.672-1.008-.096 0-.192-.144-.288-.144-.624-.048-1.104.144-1.584.48-.768.528-.576 1.632.192 1.872.288.096.576.096.72.144h.432Zm-3.744 17.376c.624-.24 1.2-.48 1.824-.672 1.344-.528 2.496-1.296 3.648-1.92.624-.384 1.248-.816 1.968-1.152.624-.432 1.2-1.008 1.968-1.248.432-.528 1.248-.912 1.872-1.344v-.192h-.48c.192-.384.384-.528.72-.528.096-.144.336-.144.528-.24.144-.384.384-.432.768-.576.144-.096.24-.096.384-.096.144-.288.432-.288.576-.288v.288c.24-.096.912-.912 1.584-1.968-.192-.48.288-.912.048-1.008-.288-.048-1.44.528-1.68.672-.528.336-.96.624-1.536.912-.576.336-1.392.672-1.92 1.248a1.925 1.925 0 0 1-.816.432c-1.008.48-1.824 1.104-2.736 1.584-1.248.72-2.208 1.392-3.408 1.92-.576.432-1.248.576-1.728.912-.624.288-1.2.528-1.776.672-.624.24-1.248.432-1.824.624-.624.144-1.344.144-1.776-.192a3.156 3.156 0 0 1 .096-1.776c.288-.432.48-.816.576-1.248.384-1.152 1.152-2.352 1.92-3.408.384-.672.864-1.248 1.344-2.064.24-.528.768-.96 1.44-.816h.144c.192 0 .336-.384.192-.624-.384-.336-.768-.672-1.2-.96-.528-.24-1.104-.144-1.536.288-.384.48-.96.96-1.344 1.44a17.457 17.457 0 0 0-2.928 4.896c-.192.72-.384 1.44-.528 2.208-.096.864.096 1.728.432 2.496.24.72.672 1.104 1.008 1.68a.916.916 0 0 0 .384.144c1.248.336 2.592.336 3.792-.096Zm8.16-5.904c0-.096.288-.288.48-.384l.756-.453 1.512-.87c.252-.147.504-.297.756-.453a8.566 8.566 0 0 1 2.064-.864c-.096.096-.24.336-.336.336-1.344.672-2.64 1.536-3.936 2.256-.432.24-.816.432-1.296.432Zm5.952 3.648c1.008-.384 2.016-.768 2.784-1.536.288-.288.528-.576.864-.768a80.713 80.713 0 0 1 2.448-1.824c.816-.72 1.728-1.392 2.544-2.16 0 0 .048-.048.192-.048h.048c0 .048.096.048.096.096-.144.384-.288.72-.384 1.104-.336.48-.384 1.056-.384 1.632v.576c0 .624.048 1.152.672 1.584.096.144.096.192.144.336.48.768 1.008.816 1.824.624.336 0 .576-.144.864-.144 1.488-.24 2.64-.864 3.84-1.776.48-.432 1.008-.672 1.488-1.008l.324-.237.648-.438c.108-.075.216-.153.324-.237.576-.528 1.152-.864 1.776-1.248.768-.432 1.536-.864 2.112-1.392.576-.384 1.104-.768 1.584-1.344.288-.24.576-.624.432-1.008-.864-.912-1.152-.768-2.256 0l-.624.384c-1.584 1.152-3.024 2.016-4.608 2.976-1.44 1.008-2.832 1.968-4.416 2.88-.72.432-1.392.576-2.304.48-.192 0-.24-.048-.192-.384.528-1.392 1.344-2.736 1.92-4.128 0 0 .192-.096.24-.144.384-.336.528-.96.96-1.344.048-.144.144-.528.144-.72.192-.432 0-.672-.432-.816-.144-.144-.432-.144-.48-.288-.144-.048-.24-.144-.24-.048-.384.048-.72.144-1.008.384l-5.856 4.224c-1.536 1.008-2.976 2.112-4.416 3.216-.288.24-.624.288-.864.432l-.24-.144c.192-.24.24-.624.432-.912.336-.72.768-1.344 1.152-1.968.288-.528.576-1.152.864-1.536.48-.624.768-1.344 1.104-1.92.192-.384.384-.672.624-.96.192-.096.144-.336 0-.48 0-.144-.096-.192-.192-.288-.48-.432-.768-.432-1.248.096-1.296 1.392-2.304 3.072-3.312 4.704a8.656 8.656 0 0 0-1.2 2.736c-.24 1.008 0 1.872.864 2.64.384.384.864.48 1.344.144Zm20.832-7.488c-.048 0-.192 0-.288-.096l.24-.096c.048-.24.288-.24.432-.24-.048.24-.144.336-.192.432-.144 0-.192.048-.192 0Zm-.528.816c.096-.432.336-.576.72-.48-.192.288-.384.48-.72.48Zm-2.88 1.152a.9.9 0 0 1 .288-.336c0-.048.192 0 .192 0v.192c-.192.144-.336.144-.48.144Zm-.768.576c.048-.384.288-.528.672-.528-.048.384-.384.528-.672.528Zm16.704.432c.288 0 .432-.096.72-.144.048-.192.24 0 .384 0-.048.048-.144.144-.192.144-.336.192-.624.432-1.104.384 0-.096.144-.192.192-.384Zm4.464-1.344v-.144c-.048 0-.144 0-.192-.096-.144 0-.144 0-.192-.096.048 0 .048-.048.192-.048h.192v.144h.672v.096c-.096.384-.432.144-.672.144Zm-1.392.576h-.768c.192-.336.432-.576.864-.48-.048.144-.096.288-.096.48Zm-1.104.768c.096-.336.336-.336.528-.336-.096.336-.192.336-.528.336Zm-2.928 1.2h-.48c.192-.528.48-.528 1.008-.432v.144c-.24 0-.432 0-.528.288Zm-.48.192h.432c0 .288-.24.288-.432.288V28Zm-2.16 1.008c.24-.432.576-.576 1.152-.72-.288.48-.72.72-1.152.72Zm-.768.528c.048-.336.336-.528.72-.48-.096.288-.384.48-.72.48Zm-7.728 8.496c-.384-.144-.864-.192-1.152-.336-.144 0-.192-.048-.144-.144 0-.096.144-.24.192-.336a7.01 7.01 0 0 1 2.352-1.872c1.152-.624 2.16-1.296 3.168-2.208.672-.528 1.392-.912 2.208-1.392.432 1.824-.24 3.168-1.392 4.368-.24.24-.48.336-.672.576-.576.768-1.344 1.008-2.304 1.2-.24 0-.48.144-.672.144-.576.144-1.056.144-1.584 0Zm12.096-11.424c-.192 0-.288.048-.432.192-1.44.672-2.832 1.392-4.08 2.208-.48.24-.624.24-.816-.24-.384-.912-1.008-1.776-1.632-2.736-.384-.672-.768-1.344-.816-2.112-.192-.432 0-.768.336-1.008.288-.288.576-.576.912-.72.384-.096.72-.336 1.2-.048.384.144.576.048.72-.48.096-.192.096-.144.24 0 .576.528 1.344.624 1.92.288.24-.192.336-.48.048-.768-.768-.768-1.536-1.392-2.736-1.44-.864-.144-1.728.144-2.544.192-.528.144-1.152.576-1.536.96-.432.432-.528.96-.48 1.44.048.624.048 1.296.48 1.92.672 1.008 1.248 2.256 1.872 3.264.336.672.816 1.2 1.056 1.824.288.288.192.432-.048.672-1.344.768-2.496 1.632-3.744 2.352-.576.384-1.152.72-1.632 1.104-1.152.672-2.256 1.44-3.216 2.352-.144.24-.24.288-.288.432-.384.672-.336 1.296-.096 1.968.144.624.48 1.008 1.104 1.2.432.288 1.008.432 1.584.72.768.336 1.488.624 2.208 0 .336-.144.72-.144 1.2-.288a1.968 1.968 0 0 0 1.152-.624c.624-.528 1.296-1.056 1.92-1.68.96-.864 1.44-1.296 1.824-2.496.288-.72.528-1.488.288-2.352-.096-.384-.096-.768-.144-1.248 0-.432.048-.672.528-.864.384-.24.672-.624 1.2-.624.672-.432 1.248-.768 1.824-1.248.336-.096.576-.336.768-.432.432 0 0-.48.48-.48.72-.432 1.44-.768 2.112-1.152.192-.048.384-.048.432-.048.48-.384.912-.624 1.344-.768.432-.192.624-.336.96-.576v-.144h-.288a.103.103 0 0 0 .096-.096h-.144c.168-.168.483-.152.688-.146l.08.002c.144-.24.24-.24.48-.24h.048c.048-.192.24-.336.384-.192.24.192.432.192.864.048.192-.048.48-.048.768-.192l.384-.192c.096-.24-.048-.336-.24-.48-.528-.384-.432-.384-1.008-.336-.768.192-1.68.48-2.448.816a.364.364 0 0 0-.096.192c.048.144.096.192 0 .336-.192.24-.384.24-.576.24.048-.24.24-.192.48-.24v-.336h-.48c-1.344.72-2.784 1.344-4.176 1.92-.144.048-.192.24-.288.384Zm-.96 1.2c.192 0 .528 0 .576-.288h.384c-.192.48-.432.672-.96.48v-.192Zm-.48.192-.24.288h-.72c.192-.432.528-.48.96-.48V28Z"/></svg>